<mxfile host="65bd71144e">
    <diagram id="KYuZ62FBMd2hQmKnDtse" name="第 1 页">
        <mxGraphModel dx="1386" dy="805" grid="1" gridSize="10" guides="1" tooltips="1" connect="1" arrows="1" fold="1" page="1" pageScale="1" pageWidth="1654" pageHeight="2336" math="0" shadow="0">
            <root>
                <mxCell id="0"/>
                <mxCell id="1" parent="0"/>
                <mxCell id="2" value="RGB格式分类" style="swimlane;fontStyle=0;childLayout=stackLayout;horizontal=1;startSize=26;fillColor=none;horizontalStack=0;resizeParent=1;resizeParentMax=0;resizeLast=0;collapsible=1;marginBottom=0;html=1;" vertex="1" parent="1">
                    <mxGeometry x="110" y="60" width="140" height="78" as="geometry">
                        <mxRectangle x="110" y="60" width="110" height="30" as="alternateBounds"/>
                    </mxGeometry>
                </mxCell>
                <mxCell id="3" value="像素格式（真彩色）" style="text;strokeColor=none;fillColor=none;align=left;verticalAlign=top;spacingLeft=4;spacingRight=4;overflow=hidden;rotatable=0;points=[[0,0.5],[1,0.5]];portConstraint=eastwest;whiteSpace=wrap;html=1;" vertex="1" parent="2">
                    <mxGeometry y="26" width="140" height="26" as="geometry"/>
                </mxCell>
                <mxCell id="4" value="索引格式" style="text;strokeColor=none;fillColor=none;align=left;verticalAlign=top;spacingLeft=4;spacingRight=4;overflow=hidden;rotatable=0;points=[[0,0.5],[1,0.5]];portConstraint=eastwest;whiteSpace=wrap;html=1;" vertex="1" parent="2">
                    <mxGeometry y="52" width="140" height="26" as="geometry"/>
                </mxCell>
                <mxCell id="7" value="R，G，B分开，用N个位表示，如RGB24中R，G，B分别占8位，一个像素占24位。缺点是占用空间比较大。" style="whiteSpace=wrap;html=1;shape=partialRectangle;top=0;left=0;bottom=1;right=0;points=[[0,1],[1,1]];fillColor=none;align=center;verticalAlign=bottom;routingCenterY=0.5;snapToPoint=1;recursiveResize=0;autosize=1;treeFolding=1;treeMoving=1;newEdgeStyle={&quot;edgeStyle&quot;:&quot;entityRelationEdgeStyle&quot;,&quot;startArrow&quot;:&quot;none&quot;,&quot;endArrow&quot;:&quot;none&quot;,&quot;segment&quot;:10,&quot;curved&quot;:1,&quot;sourcePerimeterSpacing&quot;:0,&quot;targetPerimeterSpacing&quot;:0};" vertex="1" parent="1">
                    <mxGeometry x="310" y="20" width="550" height="50" as="geometry"/>
                </mxCell>
                <mxCell id="8" value="" style="edgeStyle=entityRelationEdgeStyle;startArrow=none;endArrow=none;segment=10;curved=1;sourcePerimeterSpacing=0;targetPerimeterSpacing=0;exitX=1;exitY=0.5;exitDx=0;exitDy=0;" edge="1" target="7" parent="1" source="3">
                    <mxGeometry relative="1" as="geometry">
                        <mxPoint x="240" y="100" as="sourcePoint"/>
                    </mxGeometry>
                </mxCell>
                <mxCell id="9" value="RGB 的值是一个索引，不是真正的颜色值。如RGB值占1位（只能0或者1，通常用于黑白场景），那么0跟1分别代表什么颜色，需要通过索引表（调色盘）确定。" style="whiteSpace=wrap;html=1;shape=partialRectangle;top=0;left=0;bottom=1;right=0;points=[[0,1],[1,1]];fillColor=none;align=center;verticalAlign=bottom;routingCenterY=0.5;snapToPoint=1;recursiveResize=0;autosize=1;treeFolding=1;treeMoving=1;newEdgeStyle={&quot;edgeStyle&quot;:&quot;entityRelationEdgeStyle&quot;,&quot;startArrow&quot;:&quot;none&quot;,&quot;endArrow&quot;:&quot;none&quot;,&quot;segment&quot;:10,&quot;curved&quot;:1,&quot;sourcePerimeterSpacing&quot;:0,&quot;targetPerimeterSpacing&quot;:0};" vertex="1" parent="1">
                    <mxGeometry x="310" y="110" width="550" height="50" as="geometry"/>
                </mxCell>
                <mxCell id="10" value="" style="edgeStyle=entityRelationEdgeStyle;startArrow=none;endArrow=none;segment=10;curved=1;sourcePerimeterSpacing=0;targetPerimeterSpacing=0;exitX=1;exitY=0.5;exitDx=0;exitDy=0;entryX=0;entryY=1;entryDx=0;entryDy=0;" edge="1" parent="1" source="4" target="9">
                    <mxGeometry relative="1" as="geometry">
                        <mxPoint x="260" y="109" as="sourcePoint"/>
                        <mxPoint x="320" y="80" as="targetPoint"/>
                    </mxGeometry>
                </mxCell>
                <mxCell id="32" value="BMP文件概述" style="shape=table;childLayout=tableLayout;startSize=40;collapsible=0;recursiveResize=0;expand=0;fontStyle=1;" vertex="1" parent="1">
                    <mxGeometry x="90" y="320" width="420" height="280" as="geometry"/>
                </mxCell>
                <mxCell id="33" value="文件头" style="shape=tableRow;horizontal=0;startSize=60;swimlaneHead=0;swimlaneBody=0;top=0;left=0;bottom=0;right=0;dropTarget=0;fillColor=none;collapsible=0;recursiveResize=0;expand=0;fontStyle=1;textDirection=ltr;" vertex="1" parent="32">
                    <mxGeometry y="40" width="420" height="80" as="geometry"/>
                </mxCell>
                <mxCell id="34" value="1~2(2)" style="swimlane;swimlaneHead=0;swimlaneBody=0;fontStyle=0;connectable=0;fillColor=none;startSize=40;collapsible=0;recursiveResize=0;expand=0;fontStyle=1;" vertex="1" parent="33">
                    <mxGeometry x="60" width="120" height="80" as="geometry">
                        <mxRectangle width="120" height="80" as="alternateBounds"/>
                    </mxGeometry>
                </mxCell>
                <mxCell id="80" value="魔数，如&quot;BM&quot;代表windows平台" style="rounded=0;whiteSpace=wrap;html=1;labelBorderColor=none;strokeWidth=1;" vertex="1" parent="34">
                    <mxGeometry y="40" width="120" height="80" as="geometry"/>
                </mxCell>
                <mxCell id="35" value="3~6(4) " style="swimlane;swimlaneHead=0;swimlaneBody=0;fontStyle=0;connectable=0;fillColor=none;startSize=40;collapsible=0;recursiveResize=0;expand=0;fontStyle=1;" vertex="1" parent="33">
                    <mxGeometry x="180" width="120" height="80" as="geometry">
                        <mxRectangle width="120" height="80" as="alternateBounds"/>
                    </mxGeometry>
                </mxCell>
                <mxCell id="81" value="文件大小" style="rounded=0;whiteSpace=wrap;html=1;labelBorderColor=none;strokeWidth=1;" vertex="1" parent="35">
                    <mxGeometry y="40" width="120" height="80" as="geometry"/>
                </mxCell>
                <mxCell id="36" value="7~10(4) " style="swimlane;swimlaneHead=0;swimlaneBody=0;fontStyle=0;connectable=0;fillColor=none;startSize=40;collapsible=0;recursiveResize=0;expand=0;fontStyle=1;" vertex="1" parent="33">
                    <mxGeometry x="300" width="120" height="80" as="geometry">
                        <mxRectangle width="120" height="80" as="alternateBounds"/>
                    </mxGeometry>
                </mxCell>
                <mxCell id="82" value="保留字节，始终为0" style="rounded=0;whiteSpace=wrap;html=1;labelBorderColor=none;strokeWidth=1;" vertex="1" parent="36">
                    <mxGeometry y="40" width="120" height="80" as="geometry"/>
                </mxCell>
                <mxCell id="37" value="信息头" style="shape=tableRow;horizontal=0;startSize=60;swimlaneHead=0;swimlaneBody=0;top=0;left=0;bottom=0;right=0;dropTarget=0;fillColor=none;collapsible=0;recursiveResize=0;expand=0;fontStyle=1;" vertex="1" parent="32">
                    <mxGeometry y="120" width="420" height="80" as="geometry"/>
                </mxCell>
                <mxCell id="38" value="" style="swimlane;swimlaneHead=0;swimlaneBody=0;fontStyle=0;connectable=0;fillColor=none;startSize=0;collapsible=0;recursiveResize=0;expand=0;fontStyle=1;" vertex="1" parent="37">
                    <mxGeometry x="60" width="120" height="80" as="geometry">
                        <mxRectangle width="120" height="80" as="alternateBounds"/>
                    </mxGeometry>
                </mxCell>
                <mxCell id="39" value="" style="swimlane;swimlaneHead=0;swimlaneBody=0;fontStyle=0;connectable=0;fillColor=none;startSize=0;collapsible=0;recursiveResize=0;expand=0;fontStyle=1;" vertex="1" parent="37">
                    <mxGeometry x="180" width="120" height="80" as="geometry">
                        <mxRectangle width="120" height="80" as="alternateBounds"/>
                    </mxGeometry>
                </mxCell>
                <mxCell id="88" value="0x7~0x10 " style="swimlane;swimlaneHead=0;swimlaneBody=0;fontStyle=0;connectable=0;fillColor=none;startSize=40;collapsible=0;recursiveResize=0;expand=0;fontStyle=1;" vertex="1" parent="39">
                    <mxGeometry width="120" height="120" as="geometry">
                        <mxRectangle width="120" height="120" as="alternateBounds"/>
                    </mxGeometry>
                </mxCell>
                <mxCell id="40" value="" style="swimlane;swimlaneHead=0;swimlaneBody=0;fontStyle=0;connectable=0;fillColor=none;startSize=0;collapsible=0;recursiveResize=0;expand=0;fontStyle=1;" vertex="1" parent="37">
                    <mxGeometry x="300" width="120" height="80" as="geometry">
                        <mxRectangle width="120" height="80" as="alternateBounds"/>
                    </mxGeometry>
                </mxCell>
                <mxCell id="91" value="0x7~0x10 " style="swimlane;swimlaneHead=0;swimlaneBody=0;fontStyle=0;connectable=0;fillColor=none;startSize=40;collapsible=0;recursiveResize=0;expand=0;fontStyle=1;" vertex="1" parent="40">
                    <mxGeometry width="120" height="120" as="geometry">
                        <mxRectangle width="120" height="120" as="alternateBounds"/>
                    </mxGeometry>
                </mxCell>
                <mxCell id="41" value="调色板" style="shape=tableRow;horizontal=0;startSize=60;swimlaneHead=0;swimlaneBody=0;top=0;left=0;bottom=0;right=0;dropTarget=0;fillColor=none;collapsible=0;recursiveResize=0;expand=0;fontStyle=1;movable=0;resizable=0;rotatable=0;deletable=0;editable=0;connectable=0;" vertex="1" parent="32">
                    <mxGeometry y="200" width="420" height="80" as="geometry"/>
                </mxCell>
                <mxCell id="42" value="" style="swimlane;swimlaneHead=0;swimlaneBody=0;fontStyle=0;connectable=0;fillColor=none;startSize=0;collapsible=0;recursiveResize=0;expand=0;fontStyle=1;movable=0;resizable=0;rotatable=0;deletable=0;editable=0;" vertex="1" parent="41">
                    <mxGeometry x="60" width="120" height="80" as="geometry">
                        <mxRectangle width="120" height="80" as="alternateBounds"/>
                    </mxGeometry>
                </mxCell>
                <mxCell id="87" value="15~18(4)" style="rounded=0;whiteSpace=wrap;html=1;labelBorderColor=none;strokeWidth=1;" vertex="1" parent="42">
                    <mxGeometry y="-40" width="120" height="40" as="geometry"/>
                </mxCell>
                <mxCell id="86" value="信息头大小，为40" style="rounded=0;whiteSpace=wrap;html=1;labelBorderColor=none;strokeWidth=1;" vertex="1" parent="42">
                    <mxGeometry width="120" height="80" as="geometry"/>
                </mxCell>
                <mxCell id="43" value="" style="swimlane;swimlaneHead=0;swimlaneBody=0;fontStyle=0;connectable=1;fillColor=none;startSize=0;collapsible=0;recursiveResize=0;expand=0;fontStyle=1;labelBorderColor=none;movable=1;resizable=1;rotatable=1;deletable=1;editable=1;" vertex="1" parent="41">
                    <mxGeometry x="180" width="120" height="80" as="geometry">
                        <mxRectangle width="120" height="80" as="alternateBounds"/>
                    </mxGeometry>
                </mxCell>
                <mxCell id="90" value="19~22(4)" style="rounded=0;whiteSpace=wrap;html=1;labelBorderColor=none;strokeWidth=1;" vertex="1" parent="43">
                    <mxGeometry y="-40" width="120" height="40" as="geometry"/>
                </mxCell>
                <mxCell id="89" value="图像宽" style="rounded=0;whiteSpace=wrap;html=1;labelBorderColor=none;strokeWidth=1;" vertex="1" parent="43">
                    <mxGeometry width="120" height="80" as="geometry"/>
                </mxCell>
                <mxCell id="44" value="" style="swimlane;swimlaneHead=0;swimlaneBody=0;fontStyle=0;connectable=1;fillColor=none;startSize=0;collapsible=0;recursiveResize=0;expand=0;fontStyle=1;movable=1;resizable=1;rotatable=1;deletable=1;editable=1;strokeColor=none;swimlaneLine=0;horizontal=0;" vertex="1" parent="41">
                    <mxGeometry x="300" width="120" height="80" as="geometry">
                        <mxRectangle width="120" height="80" as="alternateBounds"/>
                    </mxGeometry>
                </mxCell>
                <mxCell id="93" value="23~26(4)" style="rounded=0;whiteSpace=wrap;html=1;labelBorderColor=none;strokeWidth=1;" vertex="1" parent="44">
                    <mxGeometry y="-40" width="120" height="40" as="geometry"/>
                </mxCell>
                <mxCell id="92" value="图像高" style="rounded=0;whiteSpace=wrap;html=1;labelBorderColor=none;strokeWidth=1;" vertex="1" parent="44">
                    <mxGeometry width="120" height="80" as="geometry"/>
                </mxCell>
                <mxCell id="47" value="Branch" style="whiteSpace=wrap;html=1;shape=partialRectangle;top=0;left=0;bottom=1;right=0;points=[[0,1],[1,1]];fillColor=none;align=center;verticalAlign=bottom;routingCenterY=0.5;snapToPoint=1;recursiveResize=0;autosize=1;treeFolding=1;treeMoving=1;newEdgeStyle={&quot;edgeStyle&quot;:&quot;entityRelationEdgeStyle&quot;,&quot;startArrow&quot;:&quot;none&quot;,&quot;endArrow&quot;:&quot;none&quot;,&quot;segment&quot;:10,&quot;curved&quot;:1,&quot;sourcePerimeterSpacing&quot;:0,&quot;targetPerimeterSpacing&quot;:0};" vertex="1" parent="1">
                    <mxGeometry x="980" y="380" width="80" height="30" as="geometry"/>
                </mxCell>
                <mxCell id="48" value="" style="edgeStyle=entityRelationEdgeStyle;startArrow=none;endArrow=none;segment=10;curved=1;sourcePerimeterSpacing=0;targetPerimeterSpacing=0;" edge="1" target="47" parent="1">
                    <mxGeometry relative="1" as="geometry">
                        <mxPoint x="920" y="450" as="sourcePoint"/>
                    </mxGeometry>
                </mxCell>
                <mxCell id="49" value="Bitmap-FIle，微软推出的图像文件格式" style="whiteSpace=wrap;html=1;shape=partialRectangle;top=0;left=0;bottom=1;right=0;points=[[0,1],[1,1]];fillColor=none;align=center;verticalAlign=bottom;routingCenterY=0.5;snapToPoint=1;recursiveResize=0;autosize=1;treeFolding=1;treeMoving=1;newEdgeStyle={&quot;edgeStyle&quot;:&quot;entityRelationEdgeStyle&quot;,&quot;startArrow&quot;:&quot;none&quot;,&quot;endArrow&quot;:&quot;none&quot;,&quot;segment&quot;:10,&quot;curved&quot;:1,&quot;sourcePerimeterSpacing&quot;:0,&quot;targetPerimeterSpacing&quot;:0};" vertex="1" parent="1">
                    <mxGeometry x="560" y="290" width="250" height="30" as="geometry"/>
                </mxCell>
                <mxCell id="50" value="" style="edgeStyle=entityRelationEdgeStyle;startArrow=none;endArrow=none;segment=10;curved=1;sourcePerimeterSpacing=0;targetPerimeterSpacing=0;exitX=1.01;exitY=0.055;exitDx=0;exitDy=0;exitPerimeter=0;" edge="1" parent="1" target="49" source="32">
                    <mxGeometry relative="1" as="geometry">
                        <mxPoint x="560" y="370" as="sourcePoint"/>
                    </mxGeometry>
                </mxCell>
                <mxCell id="72" value="位图数据" style="rounded=0;whiteSpace=wrap;html=1;labelBorderColor=none;strokeWidth=1;" vertex="1" parent="1">
                    <mxGeometry x="90" y="720" width="60" height="120" as="geometry"/>
                </mxCell>
                <mxCell id="73" value="文件头&lt;br&gt;14字节" style="rounded=0;whiteSpace=wrap;html=1;labelBorderColor=none;strokeWidth=1;" vertex="1" parent="1">
                    <mxGeometry x="90" y="360" width="60" height="120" as="geometry"/>
                </mxCell>
                <mxCell id="74" value="信息头&lt;br&gt;40字节" style="rounded=0;whiteSpace=wrap;html=1;labelBorderColor=none;strokeWidth=1;" vertex="1" parent="1">
                    <mxGeometry x="90" y="480" width="60" height="120" as="geometry"/>
                </mxCell>
                <mxCell id="75" value="调色板" style="rounded=0;whiteSpace=wrap;html=1;labelBorderColor=none;strokeWidth=1;" vertex="1" parent="1">
                    <mxGeometry x="90" y="600" width="60" height="120" as="geometry"/>
                </mxCell>
                <mxCell id="83" value="0x7~0x10 " style="swimlane;swimlaneHead=0;swimlaneBody=0;fontStyle=0;connectable=0;fillColor=none;startSize=40;collapsible=0;recursiveResize=0;expand=0;fontStyle=1;" vertex="1" parent="1">
                    <mxGeometry x="510" y="360" width="120" height="120" as="geometry">
                        <mxRectangle width="120" height="120" as="alternateBounds"/>
                    </mxGeometry>
                </mxCell>
                <mxCell id="84" value="位图数据偏移地址，== 14 + 40 + 调色板size" style="rounded=0;whiteSpace=wrap;html=1;labelBorderColor=none;strokeWidth=1;" vertex="1" parent="83">
                    <mxGeometry y="40" width="120" height="80" as="geometry"/>
                </mxCell>
                <mxCell id="85" value="11~14(4)" style="rounded=0;whiteSpace=wrap;html=1;labelBorderColor=none;strokeWidth=1;" vertex="1" parent="83">
                    <mxGeometry width="120" height="40" as="geometry"/>
                </mxCell>
                <mxCell id="94" value="0x7~0x10 " style="swimlane;swimlaneHead=0;swimlaneBody=0;fontStyle=0;connectable=0;fillColor=none;startSize=40;collapsible=0;recursiveResize=0;expand=0;fontStyle=1;" vertex="1" parent="1">
                    <mxGeometry x="510" y="480" width="120" height="120" as="geometry">
                        <mxRectangle width="120" height="120" as="alternateBounds"/>
                    </mxGeometry>
                </mxCell>
                <mxCell id="95" value="color planes 的数量 ，通常是 01" style="rounded=0;whiteSpace=wrap;html=1;labelBorderColor=none;strokeWidth=1;" vertex="1" parent="94">
                    <mxGeometry y="40" width="120" height="80" as="geometry"/>
                </mxCell>
                <mxCell id="96" value="27~28(2)" style="rounded=0;whiteSpace=wrap;html=1;labelBorderColor=none;strokeWidth=1;" vertex="1" parent="94">
                    <mxGeometry width="120" height="40" as="geometry"/>
                </mxCell>
                <mxCell id="97" value="0x7~0x10 " style="swimlane;swimlaneHead=0;swimlaneBody=0;fontStyle=0;connectable=0;fillColor=none;startSize=40;collapsible=0;recursiveResize=0;expand=0;fontStyle=1;" vertex="1" parent="1">
                    <mxGeometry x="630" y="480" width="120" height="120" as="geometry">
                        <mxRectangle width="120" height="120" as="alternateBounds"/>
                    </mxGeometry>
                </mxCell>
                <mxCell id="98" value="每个像素size，如RGB24中，该值为24" style="rounded=0;whiteSpace=wrap;html=1;labelBorderColor=none;strokeWidth=1;" vertex="1" parent="97">
                    <mxGeometry y="40" width="120" height="80" as="geometry"/>
                </mxCell>
                <mxCell id="99" value="29~30(2)" style="rounded=0;whiteSpace=wrap;html=1;labelBorderColor=none;strokeWidth=1;" vertex="1" parent="97">
                    <mxGeometry width="120" height="40" as="geometry"/>
                </mxCell>
                <mxCell id="100" value="0x7~0x10 " style="swimlane;swimlaneHead=0;swimlaneBody=0;fontStyle=0;connectable=0;fillColor=none;startSize=40;collapsible=0;recursiveResize=0;expand=0;fontStyle=1;" vertex="1" parent="1">
                    <mxGeometry x="750" y="480" width="120" height="120" as="geometry">
                        <mxRectangle width="120" height="120" as="alternateBounds"/>
                    </mxGeometry>
                </mxCell>
                <mxCell id="101" value="压缩类型，0代表无压缩" style="rounded=0;whiteSpace=wrap;html=1;labelBorderColor=none;strokeWidth=1;" vertex="1" parent="100">
                    <mxGeometry y="40" width="120" height="80" as="geometry"/>
                </mxCell>
                <mxCell id="102" value="31~34(4)" style="rounded=0;whiteSpace=wrap;html=1;labelBorderColor=none;strokeWidth=1;" vertex="1" parent="100">
                    <mxGeometry width="120" height="40" as="geometry"/>
                </mxCell>
                <mxCell id="103" value="0x7~0x10 " style="swimlane;swimlaneHead=0;swimlaneBody=0;fontStyle=0;connectable=0;fillColor=none;startSize=40;collapsible=0;recursiveResize=0;expand=0;fontStyle=1;" vertex="1" parent="1">
                    <mxGeometry x="870" y="480" width="120" height="120" as="geometry">
                        <mxRectangle width="120" height="120" as="alternateBounds"/>
                    </mxGeometry>
                </mxCell>
                <mxCell id="104" value="图像大小，不包含信息头和文件头" style="rounded=0;whiteSpace=wrap;html=1;labelBorderColor=none;strokeWidth=1;" vertex="1" parent="103">
                    <mxGeometry y="40" width="120" height="80" as="geometry"/>
                </mxCell>
                <mxCell id="105" value="35~38(4)" style="rounded=0;whiteSpace=wrap;html=1;labelBorderColor=none;strokeWidth=1;" vertex="1" parent="103">
                    <mxGeometry width="120" height="40" as="geometry"/>
                </mxCell>
                <mxCell id="106" value="0x7~0x10 " style="swimlane;swimlaneHead=0;swimlaneBody=0;fontStyle=0;connectable=0;fillColor=none;startSize=40;collapsible=0;recursiveResize=0;expand=0;fontStyle=1;" vertex="1" parent="1">
                    <mxGeometry x="990" y="480" width="120" height="120" as="geometry">
                        <mxRectangle width="120" height="120" as="alternateBounds"/>
                    </mxGeometry>
                </mxCell>
                <mxCell id="107" value="水平分辨率，单位长度上有多少个像素点" style="rounded=0;whiteSpace=wrap;html=1;labelBorderColor=none;strokeWidth=1;" vertex="1" parent="106">
                    <mxGeometry y="40" width="120" height="80" as="geometry"/>
                </mxCell>
                <mxCell id="108" value="39~42(4)" style="rounded=0;whiteSpace=wrap;html=1;labelBorderColor=none;strokeWidth=1;" vertex="1" parent="106">
                    <mxGeometry width="120" height="40" as="geometry"/>
                </mxCell>
                <mxCell id="109" value="0x7~0x10 " style="swimlane;swimlaneHead=0;swimlaneBody=0;fontStyle=0;connectable=0;fillColor=none;startSize=40;collapsible=0;recursiveResize=0;expand=0;fontStyle=1;" vertex="1" parent="1">
                    <mxGeometry x="1110" y="480" width="120" height="120" as="geometry">
                        <mxRectangle width="120" height="120" as="alternateBounds"/>
                    </mxGeometry>
                </mxCell>
                <mxCell id="110" value="垂直分辨率" style="rounded=0;whiteSpace=wrap;html=1;labelBorderColor=none;strokeWidth=1;" vertex="1" parent="109">
                    <mxGeometry y="40" width="120" height="80" as="geometry"/>
                </mxCell>
                <mxCell id="111" value="43~45(4)" style="rounded=0;whiteSpace=wrap;html=1;labelBorderColor=none;strokeWidth=1;" vertex="1" parent="109">
                    <mxGeometry width="120" height="40" as="geometry"/>
                </mxCell>
                <mxCell id="112" value="0x7~0x10 " style="swimlane;swimlaneHead=0;swimlaneBody=0;fontStyle=0;connectable=0;fillColor=none;startSize=40;collapsible=0;recursiveResize=0;expand=0;fontStyle=1;" vertex="1" parent="1">
                    <mxGeometry x="1230" y="480" width="120" height="120" as="geometry">
                        <mxRectangle width="120" height="120" as="alternateBounds"/>
                    </mxGeometry>
                </mxCell>
                <mxCell id="113" value="颜色索引数，真彩色位0" style="rounded=0;whiteSpace=wrap;html=1;labelBorderColor=none;strokeWidth=1;" vertex="1" parent="112">
                    <mxGeometry y="40" width="120" height="80" as="geometry"/>
                </mxCell>
                <mxCell id="114" value="46~49(4)" style="rounded=0;whiteSpace=wrap;html=1;labelBorderColor=none;strokeWidth=1;" vertex="1" parent="112">
                    <mxGeometry width="120" height="40" as="geometry"/>
                </mxCell>
                <mxCell id="115" value="0x7~0x10 " style="swimlane;swimlaneHead=0;swimlaneBody=0;fontStyle=0;connectable=0;fillColor=none;startSize=40;collapsible=0;recursiveResize=0;expand=0;fontStyle=1;" vertex="1" parent="1">
                    <mxGeometry x="1350" y="480" width="120" height="120" as="geometry">
                        <mxRectangle width="120" height="120" as="alternateBounds"/>
                    </mxGeometry>
                </mxCell>
                <mxCell id="116" value="对图像显示有重要影响的颜色索引数，真彩色为0" style="rounded=0;whiteSpace=wrap;html=1;labelBorderColor=none;strokeWidth=1;" vertex="1" parent="115">
                    <mxGeometry y="40" width="120" height="80" as="geometry"/>
                </mxCell>
                <mxCell id="117" value="50~53(4)" style="rounded=0;whiteSpace=wrap;html=1;labelBorderColor=none;strokeWidth=1;" vertex="1" parent="115">
                    <mxGeometry width="120" height="40" as="geometry"/>
                </mxCell>
                <mxCell id="118" value="-" style="rounded=0;whiteSpace=wrap;html=1;labelBorderColor=none;strokeWidth=1;" vertex="1" parent="1">
                    <mxGeometry x="150" y="600" width="120" height="240" as="geometry"/>
                </mxCell>
            </root>
        </mxGraphModel>
    </diagram>
</mxfile>